HIERARCHY
ROOT Hips
{
	OFFSET 0.000000 0.000000 0.000000 
	CHANNELS 6 Xposition Yposition Zposition Yrotation Xrotation Zrotation
	JOINT Spine
	{
		OFFSET 0.000000 0.072080 0.012321 
		CHANNELS 3 Xrotation Yrotation Zrotation
		JOINT Spine1
		{
			OFFSET 0.000000 0.126984 -0.001294 
			CHANNELS 3 Xrotation Yrotation Zrotation
			JOINT Spine2
			{
				OFFSET 0.000000 0.106559 -0.010096 
				CHANNELS 3 Xrotation Yrotation Zrotation
				JOINT Neck
				{
					OFFSET 0.000000 0.108417 -0.034017 
					CHANNELS 3 Xrotation Yrotation Zrotation
					JOINT Neck1
					{
						OFFSET 0.000000 0.033906 0.007241 
						CHANNELS 3 Xrotation Yrotation Zrotation
						JOINT Head
						{
							OFFSET 0.000000 0.031458 0.006707 
							CHANNELS 3 Xrotation Yrotation Zrotation
							End Site
							{
								OFFSET 0.000000 0.179920 0.000962 
							}
						}
					}
				}
				JOINT LeftShoulder
				{
					OFFSET 0.048002 0.079586 -0.029634 
					CHANNELS 3 Zrotation Xrotation Yrotation
					JOINT LeftArm
					{
						OFFSET 0.096243 -0.008695 -0.014012 
						CHANNELS 3 Zrotation Xrotation Yrotation
						JOINT LeftForeArm
						{
							OFFSET 0.216305 0.000000 0.000000 
							CHANNELS 3 Xrotation Zrotation Yrotation
							JOINT LeftHand
							{
								OFFSET 0.217764 0.000000 0.000000 
								CHANNELS 3 Zrotation Yrotation Xrotation
								JOINT LeftHandThumb1
								{
									OFFSET 0.018582 -0.007835 0.020476 
									CHANNELS 3 Zrotation Xrotation Yrotation
									JOINT LeftHandThumb2
									{
										OFFSET 0.026269 -0.007835 0.022186 
										CHANNELS 3 Zrotation Xrotation Yrotation
										JOINT LeftHandThumb3
										{
											OFFSET 0.035170 -0.010504 0.017018 
											CHANNELS 3 Zrotation Xrotation Yrotation
											End Site
											{
												OFFSET 0.020312 -0.007813 0.007813 
											}
										}
									}
								}
								JOINT LeftHandMiddle1
								{
									OFFSET 0.081749 0.004803 0.003358 
									CHANNELS 3 Zrotation Xrotation Yrotation
									JOINT LeftHandMiddle2
									{
										OFFSET 0.045251 0.000000 0.000000 
										CHANNELS 3 Zrotation Xrotation Yrotation
										JOINT LeftHandMiddle3
										{
											OFFSET 0.029009 0.000000 0.000000 
											CHANNELS 3 Zrotation Xrotation Yrotation
											End Site
											{
												OFFSET 0.017969 0.000000 0.000000 
											}
										}
									}
								}
								JOINT LeftHandIndex1
								{
									OFFSET 0.081207 0.004803 0.021137 
									CHANNELS 3 Zrotation Xrotation Yrotation
									JOINT LeftHandIndex2
									{
										OFFSET 0.043354 0.000000 0.000000 
										CHANNELS 3 Zrotation Xrotation Yrotation
										JOINT LeftHandIndex3
										{
											OFFSET 0.026493 0.000000 0.000000 
											CHANNELS 3 Zrotation Xrotation Yrotation
											End Site
											{
												OFFSET 0.019531 0.000000 0.000000 
											}
										}
									}
								}
								JOINT LeftHandRing1
								{
									OFFSET 0.080666 0.002509 -0.014652 
									CHANNELS 3 Zrotation Xrotation Yrotation
									JOINT LeftHandRing2
									{
										OFFSET 0.042541 0.000000 0.000000 
										CHANNELS 3 Zrotation Xrotation Yrotation
										JOINT LeftHandRing3
										{
											OFFSET 0.029009 0.000000 0.000000 
											CHANNELS 3 Zrotation Xrotation Yrotation
											End Site
											{
												OFFSET 0.015625 0.000000 0.000000 
											}
										}
									}
								}
								JOINT LeftHandPinky1
								{
									OFFSET 0.078227 -0.000612 -0.030993 
									CHANNELS 3 Zrotation Xrotation Yrotation
									JOINT LeftHandPinky2
									{
										OFFSET 0.028721 0.000000 0.000000 
										CHANNELS 3 Zrotation Xrotation Yrotation
										JOINT LeftHandPinky3
										{
											OFFSET 0.021963 0.000000 0.000000 
											CHANNELS 3 Zrotation Xrotation Yrotation
											End Site
											{
												OFFSET 0.022656 0.000000 0.000000 
											}
										}
									}
								}
							}
						}
					}
				}
				JOINT RightShoulder
				{
					OFFSET -0.047970 0.079586 -0.029634 
					CHANNELS 3 Zrotation Xrotation Yrotation
					JOINT RightArm
					{
						OFFSET -0.096274 -0.008695 -0.014012 
						CHANNELS 3 Zrotation Xrotation Yrotation
						JOINT RightForeArm
						{
							OFFSET -0.216305 0.000000 0.000000 
							CHANNELS 3 Xrotation Zrotation Yrotation
							JOINT RightHand
							{
								OFFSET -0.217764 0.000000 0.000000 
								CHANNELS 3 Zrotation Yrotation Xrotation
								JOINT RightHandThumb1
								{
									OFFSET -0.019670 -0.007318 0.019638 
									CHANNELS 3 Zrotation Xrotation Yrotation
									JOINT RightHandThumb2
									{
										OFFSET -0.025498 -0.008492 0.023179 
										CHANNELS 3 Zrotation Xrotation Yrotation
										JOINT RightHandThumb3
										{
											OFFSET -0.034504 -0.010705 0.016680 
											CHANNELS 3 Zrotation Xrotation Yrotation
											End Site
											{
												OFFSET -0.020312 -0.007813 0.007813 
											}
										}
									}
								}
								JOINT RightHandIndex1
								{
									OFFSET -0.081770 0.003825 0.021187 
									CHANNELS 3 Zrotation Xrotation Yrotation
									JOINT RightHandIndex2
									{
										OFFSET -0.042006 0.000000 0.000000 
										CHANNELS 3 Zrotation Xrotation Yrotation
										JOINT RightHandIndex3
										{
											OFFSET -0.026449 0.000000 0.000000 
											CHANNELS 3 Zrotation Xrotation Yrotation
											End Site
											{
												OFFSET -0.020312 0.000000 0.000000 
											}
										}
									}
								}
								JOINT RightHandMiddle1
								{
									OFFSET -0.084059 0.003825 0.003342 
									CHANNELS 3 Zrotation Xrotation Yrotation
									JOINT RightHandMiddle2
									{
										OFFSET -0.043881 0.000000 0.000000 
										CHANNELS 3 Zrotation Xrotation Yrotation
										JOINT RightHandMiddle3
										{
											OFFSET -0.029191 0.000000 0.000000 
											CHANNELS 3 Zrotation Xrotation Yrotation
											End Site
											{
												OFFSET -0.017969 0.000000 0.000000 
											}
										}
									}
								}
								JOINT RightHandRing1
								{
									OFFSET -0.081798 0.003030 -0.015127 
									CHANNELS 3 Zrotation Xrotation Yrotation
									JOINT RightHandRing2
									{
										OFFSET -0.042198 0.000000 0.000000 
										CHANNELS 3 Zrotation Xrotation Yrotation
										JOINT RightHandRing3
										{
											OFFSET -0.026497 0.000000 0.000000 
											CHANNELS 3 Zrotation Xrotation Yrotation
											End Site
											{
												OFFSET -0.017188 0.000000 0.000000 
											}
										}
									}
								}
								JOINT RightHandPinky1
								{
									OFFSET -0.077902 -0.000930 -0.030891 
									CHANNELS 3 Zrotation Xrotation Yrotation
									JOINT RightHandPinky2
									{
										OFFSET -0.028538 0.000000 0.000000 
										CHANNELS 3 Zrotation Xrotation Yrotation
										JOINT RightHandPinky3
										{
											OFFSET -0.021734 0.000000 0.000000 
											CHANNELS 3 Zrotation Xrotation Yrotation
											End Site
											{
												OFFSET -0.022656 0.000000 0.000000 
											}
										}
									}
								}
							}
						}
					}
				}
			}
		}
	}
	JOINT LeftUpLeg
	{
		OFFSET 0.075264 -0.025573 0.000000 
		CHANNELS 3 Xrotation Yrotation Zrotation
		JOINT LeftLeg
		{
			OFFSET 0.000000 -0.326016 -0.013516 
			CHANNELS 3 Xrotation Yrotation Zrotation
			JOINT LeftFoot
			{
				OFFSET 0.000098 -0.306172 -0.006623 
				CHANNELS 3 Xrotation Yrotation Zrotation
				JOINT LeftToeBase
				{
					OFFSET -0.001432 -0.095259 0.064705 
					CHANNELS 3 Xrotation Yrotation Zrotation
					End Site
					{
						OFFSET 0.000000 0.000000 0.079438 
					}
				}
			}
		}
	}
	JOINT RightUpLeg
	{
		OFFSET -0.075264 -0.025573 0.000000 
		CHANNELS 3 Xrotation Yrotation Zrotation
		JOINT RightLeg
		{
			OFFSET 0.000000 -0.326016 -0.013516 
			CHANNELS 3 Xrotation Yrotation Zrotation
			JOINT RightFoot
			{
				OFFSET 0.000098 -0.306172 -0.006623 
				CHANNELS 3 Xrotation Yrotation Zrotation
				JOINT RightToeBase
				{
					OFFSET -0.001432 -0.095259 0.064705 
					CHANNELS 3 Xrotation Yrotation Zrotation
					End Site
					{
						OFFSET 0.000025 0.000000 0.079438 
					}
				}
			}
		}
	}
}
MOTION
Frames: 4
Frame Time: 0.033333
-0.009306 0.729385 0.007283 -8.606000 -3.921500 -2.416000 -1.383700 -0.557400 3.449400 -0.954400 -0.894600 4.154700 -0.934400 -0.838400 4.176900 3.056900 -0.267100 -2.609600 -0.000000 0.000000 -0.000000 14.468500 -0.403700 -9.152500 -6.377900 -0.530100 7.393900 -77.884697 12.009600 10.655900 -0.000000 -0.000000 -24.834700 -10.692600 2.396600 2.563700 0.962200 6.706400 19.969700 6.524000 -5.898800 8.178200 5.231700 -1.657800 15.521600 -8.207200 0.382900 -2.120700 -28.829201 -0.125800 0.489500 -22.504200 -0.077300 0.388600 -3.999700 0.224300 -2.963600 -25.969700 -0.102500 0.444600 -16.355700 -0.041100 0.285900 -10.544500 0.467900 -2.524600 -32.056198 -0.154800 0.538800 -24.004200 -0.087800 0.413000 -11.818500 0.513600 -0.140400 -19.628000 1.312400 -3.508400 -42.745399 -0.269700 0.689100 10.253800 0.211000 -2.113100 61.445900 7.939800 -11.543500 0.000000 -0.000000 16.987600 5.776900 -6.536500 -7.897300 2.254900 0.942800 -19.176500 -13.851000 3.472500 -1.641400 -7.451600 -9.587000 -11.073900 6.935100 0.294500 1.826000 13.148200 -0.059900 -0.519600 10.806100 -0.040500 -0.428300 8.738300 0.352100 1.794000 24.019600 -0.197800 -0.929900 -7.242400 -0.013000 0.288000 9.784400 0.384400 1.852900 24.687201 -0.208800 -0.954100 -0.884500 0.004900 0.035300 7.457300 0.311500 2.248300 24.146999 -0.199900 -0.934500 -3.178200 -0.003500 0.126600 -20.082899 13.644500 15.771600 17.665800 -1.138700 3.413300 3.314600 0.190200 -10.190100 2.313900 0.000000 0.000000 -2.676300 -10.376000 4.351200 25.653099 -3.137900 1.542700 -18.848499 0.504500 -3.583600 -0.185800 -0.000000 -0.000000 
-0.009437 0.729327 0.007259 -8.560400 -3.942600 -2.506400 -1.353200 -0.572600 3.513700 -0.936000 -0.924900 4.244900 -0.915100 -0.868600 4.267100 3.122600 -0.288700 -2.704900 -0.000000 0.000000 -0.000000 13.722200 -0.609300 -9.112300 -6.628200 -0.528700 7.336500 -77.748703 11.822200 10.415000 -0.000000 -0.000000 -24.238899 -10.644600 2.098200 2.956500 0.962200 6.706400 19.969801 6.524000 -5.898800 8.178200 5.231700 -1.657800 15.521600 -8.207100 0.382900 -2.120700 -28.829201 -0.125800 0.489500 -22.504200 -0.077300 0.388600 -3.999700 0.224300 -2.963600 -25.969700 -0.102500 0.444600 -16.355700 -0.041100 0.285900 -10.590200 0.469500 -2.523300 -32.267101 -0.156800 0.542000 -24.215099 -0.089300 0.416400 -11.949300 0.518200 -0.136700 -19.870899 1.327300 -3.498500 -42.988701 -0.272600 0.692200 10.393300 0.248300 -1.917100 61.085300 7.662600 -11.366200 0.000000 -0.000000 16.516001 5.636000 -6.260300 -7.949100 2.202800 0.971100 -19.101801 -13.622700 3.428100 -1.861300 -7.379900 -9.297200 -11.035500 6.901300 0.293400 1.850000 13.351600 -0.061700 -0.527500 10.797300 -0.040400 -0.427900 8.691400 0.350700 1.796400 24.248301 -0.201600 -0.938200 -6.525400 -0.009500 0.259600 9.968700 0.390000 1.826000 25.113600 -0.216000 -0.969600 0.226400 0.005200 -0.009000 7.857000 0.324300 2.219100 24.430599 -0.204600 -0.944800 -1.481100 -0.000800 0.059000 -20.191999 13.645200 15.896200 17.823200 -1.252000 3.424700 3.247800 0.196000 -10.197800 2.322900 -0.000000 0.000000 -2.606500 -10.310900 4.494400 25.585100 -3.263200 1.523500 -18.819799 0.500800 -3.564200 -0.191900 -0.000000 0.000000 
-0.009588 0.729230 0.007132 -8.498900 -3.965000 -2.619300 -1.311900 -0.592600 3.577700 -0.911300 -0.966700 4.346600 -0.889200 -0.910800 4.368600 3.242000 -0.287800 -2.830400 -0.000000 0.000000 -0.000000 12.935700 -0.742600 -9.080800 -6.884100 -0.518500 7.215300 -77.651802 11.605400 10.122900 -0.000000 -0.000000 -23.475599 -10.558300 1.629300 3.291400 0.962200 6.706400 19.969801 6.524000 -5.898800 8.178200 5.231700 -1.657800 15.521600 -8.207100 0.382900 -2.120700 -28.829201 -0.125800 0.489500 -22.504101 -0.077300 0.388600 -3.999700 0.224300 -2.963600 -25.969700 -0.102500 0.444600 -16.355700 -0.041100 0.285900 -10.640700 0.471300 -2.522000 -32.500099 -0.159000 0.545500 -24.448099 -0.091000 0.420200 -12.093800 0.523300 -0.132700 -20.139400 1.343600 -3.487500 -43.257599 -0.275900 0.695700 10.644400 0.301200 -1.653200 60.625500 7.361300 -11.130500 -0.000000 -0.000000 15.916100 5.500600 -5.935800 -7.968300 2.146600 1.001700 -19.021400 -13.376900 3.380400 -2.098200 -7.303100 -8.982600 -10.993900 6.864900 0.292200 1.875900 13.570600 -0.063800 -0.536000 10.787700 -0.040400 -0.427600 8.640900 0.349100 1.798900 24.494499 -0.205600 -0.947100 -5.746900 -0.006100 0.228700 10.167000 0.396000 1.797000 25.576700 -0.223900 -0.986300 1.432700 0.004600 -0.057100 8.291100 0.338100 2.187700 24.738501 -0.209700 -0.956000 0.361700 -0.000000 -0.014400 -20.344999 13.640600 16.050600 18.026300 -1.395800 3.439400 3.169400 0.203300 -10.204200 2.326500 -0.000000 0.000000 -2.545800 -10.234500 4.667000 25.528299 -3.421200 1.506900 -18.790400 0.496800 -3.544700 -0.194700 -0.000000 0.000000 
-0.009768 0.729113 0.006945 -8.418300 -3.963800 -2.738800 -1.286200 -0.621000 3.624100 -0.902400 -1.026400 4.441600 -0.879000 -0.971000 4.463600 3.388400 -0.263000 -2.963300 -0.000000 0.000000 -0.000000 12.161300 -0.765300 -9.056800 -7.127600 -0.495300 7.007200 -77.597900 11.384500 9.809300 -0.000000 -0.000000 -22.604900 -10.434600 1.014500 3.494900 0.962200 6.706400 19.969801 6.523900 -5.898800 8.178200 5.231700 -1.657800 15.521600 -8.207200 0.382900 -2.120700 -28.829201 -0.125800 0.489500 -22.504200 -0.077300 0.388600 -3.999800 0.224300 -2.963600 -25.969700 -0.102500 0.444600 -16.355700 -0.041100 0.285900 -10.695700 0.473300 -2.520600 -32.753601 -0.161400 0.549300 -24.701599 -0.092900 0.424200 -12.251100 0.528800 -0.128300 -20.431400 1.361400 -3.475400 -43.550098 -0.279400 0.699500 10.998000 0.368900 -1.331200 60.099400 7.138800 -10.860900 -0.000000 -0.000000 15.191700 5.386300 -5.600400 -7.876000 2.086900 1.034200 -18.935801 -13.115300 3.329700 -2.350500 -7.221800 -8.645400 -10.949400 6.826200 0.290900 1.903400 13.803700 -0.066000 -0.545000 10.777500 -0.040300 -0.427200 8.587100 0.347400 1.801600 24.756399 -0.210000 -0.956600 -4.912100 -0.002900 0.195600 10.378100 0.402300 1.766100 26.073200 -0.232500 -1.004100 2.726000 0.002800 -0.108600 8.756600 0.352800 2.154200 25.068600 -0.215200 -0.967900 2.337500 -0.001900 -0.093200 -20.524300 13.627400 16.207600 18.204800 -1.563100 3.456700 3.137500 0.205600 -10.213600 2.323500 0.000000 0.000000 -2.519100 -10.149800 4.852100 25.484400 -3.610500 1.492700 -18.764601 0.493000 -3.524000 -0.193900 -0.000000 -0.000000 
